<?xml version="1.0" encoding="UTF-8"?>
<svg id="Layout"
     xmlns="http://www.w3.org/2000/svg" viewBox="0 0 555.1 210">
  <defs>
    <style>.cls-1{fill:none;}.cls-2{fill:#fff;}.cls-3{fill:#aa0652;}.cls-4{fill:#b0b0b0;}</style>
  </defs>
  <rect class="cls-1" x="0" width="555" height="210"/>
  <g>
    <path class="cls-2" d="M165.93,98.48h-13.31V60.04h12.92c8.08,0,11.93,4.29,11.93,9.68,0,5.06-3.19,7.86-6.87,8.91,4.29,.77,7.75,4.73,7.75,9.57,0,5.77-4.34,10.28-12.43,10.28Zm-.66-35.2h-8.8v13.75h8.96c5.22,0,8.14-2.64,8.14-6.93s-2.75-6.82-8.3-6.82Zm.22,16.94h-9.02v15.01h9.18c5.55,0,8.85-2.8,8.85-7.42s-3.52-7.59-9.02-7.59Z"/>
    <path class="cls-2" d="M198.99,98.92c-8.52,0-14.74-5.94-14.74-15.45s6.1-15.45,14.74-15.45,14.19,6.27,14.19,13.91c0,1.21,0,1.98-.11,3.02h-24.91c.33,7.04,5.22,10.72,10.83,10.72,5.11,0,8.58-2.69,9.68-6.71h4.07c-1.38,5.66-6.21,9.95-13.75,9.95Zm-10.83-17.1h21.12c.17-6.98-4.89-10.5-10.45-10.5s-10.23,3.52-10.67,10.5Z"/>
    <path class="cls-2" d="M220.77,57.79h3.85v15.78c1.92-3.68,5.88-5.66,10.45-5.66,6.65,0,11.99,4.18,11.99,12.98v17.6h-3.79v-17.16c0-6.65-3.63-10.06-9.13-10.06s-9.51,3.52-9.51,10.83v16.39h-3.85V57.79Z"/>
    <path class="cls-2" d="M269.28,98.92c-8.47,0-14.9-5.94-14.9-15.45s6.6-15.45,15.01-15.45,15.01,5.88,15.01,15.45-6.65,15.45-15.12,15.45Zm0-3.35c5.66,0,11.16-3.85,11.16-12.1s-5.39-12.1-11.11-12.1-11.05,3.85-11.05,12.1,5.28,12.1,11,12.1Zm-6.54-34.15c0-1.38,1.1-2.53,2.53-2.53s2.53,1.16,2.53,2.53-1.15,2.53-2.53,2.53-2.53-1.16-2.53-2.53Zm8.47,0c0-1.38,1.1-2.53,2.53-2.53s2.47,1.16,2.47,2.53-1.1,2.53-2.47,2.53-2.53-1.16-2.53-2.53Z"/>
    <path class="cls-2" d="M295.84,98.48h-3.85v-30.03h3.85v5.33c1.65-3.68,5.11-5.88,10.28-5.88v4.01h-1.04c-5,0-9.24,2.25-9.24,9.79v16.77Z"/>
    <path class="cls-2" d="M325.1,68.01c5.39,0,9.9,2.97,11.82,6.93v-17.16h3.85v40.69h-3.85v-6.71c-1.76,3.96-5.94,7.15-11.88,7.15-8.25,0-14.35-6.1-14.35-15.51s6.1-15.4,14.41-15.4Zm.66,3.35c-6.32,0-11.16,4.4-11.16,12.04s4.84,12.15,11.16,12.15,11.16-4.62,11.16-12.1-5-12.1-11.16-12.1Z"/>
    <path class="cls-2" d="M363.11,98.92c-8.52,0-14.74-5.94-14.74-15.45s6.1-15.45,14.74-15.45,14.19,6.27,14.19,13.91c0,1.21,0,1.98-.11,3.02h-24.91c.33,7.04,5.22,10.72,10.83,10.72,5.11,0,8.58-2.69,9.68-6.71h4.07c-1.38,5.66-6.21,9.95-13.75,9.95Zm-10.83-17.1h21.12c.17-6.98-4.89-10.5-10.45-10.5s-10.23,3.52-10.67,10.5Z"/>
    <path class="cls-2" d="M407.38,81.32c0-6.65-3.63-10.06-9.13-10.06s-9.51,3.52-9.51,10.83v16.39h-3.85v-30.03h3.85v5.11c1.92-3.74,5.77-5.66,10.23-5.66,6.82,0,12.21,4.18,12.21,12.98v17.6h-3.79v-17.16Z"/>
    <path class="cls-2" d="M165.27,149.87c-7.97,0-14.13-4.18-14.24-11.44h8.25c.22,3.08,2.25,5.11,5.83,5.11s5.77-1.92,5.77-4.67c0-8.3-19.8-3.3-19.74-17.21,0-6.93,5.61-11.11,13.53-11.11s13.25,4.01,13.75,10.94h-8.47c-.17-2.53-2.2-4.51-5.5-4.56-3.02-.11-5.28,1.38-5.28,4.51,0,7.7,19.69,3.41,19.69,16.94,0,6.05-4.84,11.49-13.58,11.49Z"/>
    <path class="cls-2" d="M199.37,149.98c-8.85,0-15.29-6.16-15.29-15.73s6.27-15.73,15.29-15.73,15.01,5.99,15.01,15.07c0,.99-.05,1.98-.22,2.97h-22.27c.38,4.51,3.46,7.04,7.31,7.04,3.3,0,5.11-1.65,6.1-3.68h8.3c-1.65,5.61-6.71,10.06-14.24,10.06Zm-7.42-18.59h14.46c-.11-4.01-3.3-6.54-7.26-6.54-3.68,0-6.6,2.37-7.2,6.54Z"/>
    <path class="cls-2" d="M228.25,149.48h-7.7v-30.47h7.7v4.73c1.92-3.13,5.11-5.17,9.35-5.17v8.08h-2.03c-4.56,0-7.31,1.76-7.31,7.64v15.18Z"/>
    <path class="cls-2" d="M248.32,119.01l7.7,23.37,7.7-23.37h8.19l-11.27,30.47h-9.35l-11.22-30.47h8.25Z"/>
    <path class="cls-2" d="M275.99,110.88c0-2.53,1.98-4.51,4.73-4.51s4.73,1.98,4.73,4.51-2.04,4.51-4.73,4.51-4.73-1.98-4.73-4.51Zm.83,8.14h7.7v30.47h-7.7v-30.47Z"/>
    <path class="cls-2" d="M305.74,118.52c7.59,0,12.7,3.96,14.35,10.78h-8.3c-.88-2.59-2.91-4.24-6.1-4.24-4.29,0-7.15,3.25-7.15,9.18s2.86,9.13,7.15,9.13c3.19,0,5.17-1.43,6.1-4.18h8.3c-1.65,6.49-6.76,10.78-14.35,10.78-8.8,0-15.07-6.16-15.07-15.73s6.27-15.73,15.07-15.73Z"/>
    <path class="cls-2" d="M339.62,149.98c-8.85,0-15.29-6.16-15.29-15.73s6.27-15.73,15.29-15.73,15.01,5.99,15.01,15.07c0,.99-.06,1.98-.22,2.97h-22.27c.38,4.51,3.46,7.04,7.31,7.04,3.3,0,5.11-1.65,6.1-3.68h8.3c-1.65,5.61-6.71,10.06-14.24,10.06Zm-7.42-18.59h14.46c-.11-4.01-3.3-6.54-7.26-6.54-3.68,0-6.6,2.37-7.2,6.54Z"/>
    <path class="cls-2" d="M378.56,118.52c7.81,0,13.91,6.1,13.91,15.62s-6.1,15.84-13.91,15.84c-4.79,0-8.19-2.36-10.06-4.84v18.86h-7.7v-44.98h7.7v4.4c1.82-2.58,5.33-4.89,10.06-4.89Zm-2.04,6.76c-4.12,0-8.03,3.19-8.03,8.96s3.9,8.96,8.03,8.96,8.08-3.3,8.08-9.07-3.9-8.85-8.08-8.85Z"/>
    <path class="cls-2" d="M412.17,149.98c-8.8,0-15.45-6.16-15.45-15.73s6.87-15.73,15.67-15.73,15.67,6.1,15.67,15.73-7.04,15.73-15.89,15.73Zm0-6.71c4.07,0,7.97-2.97,7.97-9.02s-3.79-9.02-7.87-9.02-7.75,2.92-7.75,9.02,3.52,9.02,7.64,9.02Z"/>
    <path class="cls-2" d="M441.98,149.48h-7.7v-30.47h7.7v4.73c1.93-3.13,5.12-5.17,9.35-5.17v8.08h-2.04c-4.56,0-7.31,1.76-7.31,7.64v15.18Z"/>
    <path class="cls-2" d="M458.26,125.34h-3.63v-6.32h3.63v-7.53h7.75v7.53h6.82v6.32h-6.82v14.74c0,2.04,.82,2.92,3.24,2.92h3.57v6.49h-4.84c-5.83,0-9.73-2.47-9.73-9.46v-14.68Z"/>
    <path class="cls-2" d="M490.87,118.52c4.89,0,8.25,2.31,10.06,4.84v-4.34h7.75v30.47h-7.75v-4.46c-1.81,2.64-5.28,4.95-10.12,4.95-7.7,0-13.86-6.32-13.86-15.84s6.16-15.62,13.91-15.62Zm1.98,6.76c-4.12,0-8.03,3.08-8.03,8.85s3.9,9.07,8.03,9.07,8.08-3.19,8.08-8.96-3.85-8.96-8.08-8.96Z"/>
    <path class="cls-2" d="M516.78,108.79h7.7v40.69h-7.7v-40.69Z"/>
  </g>
  <g>
    <polygon class="cls-3" points="30.21 60 30.21 30 0 30 0 60 0 90 0 120 30.21 120 30.21 90 60.42 90 60.42 120 90.63 120 90.63 90 90.63 60 30.21 60"/>
    <polygon class="cls-4" points="60.42 150 30.21 150 30.21 120 0 120 0 150 0 180 30.21 180 60.42 180 90.63 180 90.63 150 60.42 150"/>
    <polygon class="cls-2" points="90.63 90 90.63 120 60.42 120 60.42 90 30.21 90 30.21 120 30.21 150 60.42 150 90.63 150 120.83 150 120.83 120 120.83 90 90.63 90"/>
  </g>
</svg>
